# xmcd
# 
# Track frame offsets:
#     150
#     17214
#     33855
#     46074
#     81219
#     93103
#     113864
#     138310
#     154778
#     164976
#     185678
#     199978
# 
# Disc length: 2904
# 
# Revision: 0
# Processed by: cddbd v1.5.2PL0 Copyright (c) Steve Scherf et al.
# Submitted via: fre:ac v1.0.31
# 
DISCID=9d0b560c
DTITLE=Procol Harum - A Salty Dog [CD2]
DYEAR=1969
DGENRE=Rock
TTITLE0=Skip Softly (My Moonbeams)
TTITLE1=Wish Me Well
TTITLE2=Long Gone Geek
TTITLE3=Goin’ Down Slow
TTITLE4=Juicy John Pink
TTITLE5=Crucifiction Lane
TTITLE6=Skip Softly (My Moonbeams) - Also Sprach Zarathustra
TTITLE7=The Milk Of Human Kindness
TTITLE8=Juicy John Pink
TTITLE9=A Salty Dog (Mono Single Mix)
TTITLE10=Long Gone Geek (Mono Single Mix)
TTITLE11=The Milk Of Human Kindness (Take 1 - Raw Backing Track)
EXTD=
EXTT0=
EXTT1=
EXTT2=
EXTT3=
EXTT4=
EXTT5=
EXTT6=
EXTT7=
EXTT8=
EXTT9=
EXTT10=
EXTT11=
PLAYORDER=
